<svg width="210" height="35" viewBox="0 0 210 35" fill="none" xmlns="http://www.w3.org/2000/svg">
<rect width="210" height="35" fill="black" fill-opacity="0"/>
<rect width="35" height="35" fill="black" fill-opacity="0"/>
<circle cx="17.5" cy="17.5" r="17.5" fill="white"/>
<rect width="31.8728" height="24.3952" fill="black" fill-opacity="0" transform="translate(1.68994 4.97919)"/>
<path d="M9.31782 20.0052C8.82967 20.4934 8.82967 21.2848 9.31782 21.773C9.80598 22.2611 10.5974 22.2611 11.0856 21.773L9.31782 20.0052ZM24.2276 8.47302L24.2872 9.7216L24.2872 9.7216L24.2276 8.47302ZM28.94 9.92893L29.7075 8.94224L28.94 9.92893ZM31.0267 14.7905L29.7768 14.8059L29.7768 14.8059L31.0267 14.7905ZM17.8031 28.4905C17.3149 28.9786 17.3149 29.7701 17.8031 30.2582C18.2913 30.7464 19.0827 30.7464 19.5709 30.2582L17.8031 28.4905ZM11.0856 21.773L21.655 11.2035L19.8872 9.43578L9.31782 20.0052L11.0856 21.773ZM24.2872 9.7216C25.4516 9.66603 26.8856 9.91458 28.1726 10.9156L29.7075 8.94224C27.8376 7.4879 25.7702 7.14798 24.168 7.22444L24.2872 9.7216ZM28.1726 10.9156C29.3288 11.8149 29.7582 13.2953 29.7768 14.8059L32.2766 14.7751C32.2537 12.9136 31.7264 10.5125 29.7075 8.94224L28.1726 10.9156ZM27.9916 18.302L17.8031 28.4905L19.5709 30.2582L29.7594 20.0697L27.9916 18.302ZM29.7768 14.8059C29.7916 16.0081 29.0993 17.1943 27.9916 18.302L29.7594 20.0697C31.0551 18.774 32.3037 16.9715 32.2766 14.7751L29.7768 14.8059ZM21.655 11.2035C22.5501 10.3084 23.4121 9.76336 24.2872 9.7216L24.168 7.22444C22.3375 7.3118 20.9074 8.41565 19.8872 9.43578L21.655 11.2035Z" fill="#4980FF"/>
<path d="M18.8638 21.773C19.3519 21.2848 19.3519 20.4934 18.8638 20.0052C18.3756 19.517 17.5842 19.517 17.096 20.0052L18.8638 21.773ZM11.0251 26.2341L10.9655 24.9855L10.9655 24.9855L11.0251 26.2341ZM6.31265 24.7782L5.54522 25.7649L6.31265 24.7782ZM4.22598 19.9166L5.47589 19.9012L5.47589 19.9012L4.22598 19.9166ZM17.8031 5.86306C18.2913 5.37491 18.2913 4.58345 17.8031 4.0953C17.315 3.60714 16.5235 3.60714 16.0354 4.0953L17.8031 5.86306ZM17.096 20.0052L13.5977 23.5035L15.3654 25.2713L18.8638 21.773L17.096 20.0052ZM10.9655 24.9855C9.80104 25.0411 8.36712 24.7925 7.08008 23.7915L5.54522 25.7649C7.41509 27.2192 9.48246 27.5591 11.0847 27.4826L10.9655 24.9855ZM7.08008 23.7915C5.92384 22.8922 5.49452 21.4118 5.47589 19.9012L2.97608 19.932C2.99903 21.7935 3.52628 24.1946 5.54522 25.7649L7.08008 23.7915ZM7.26106 16.4051L17.8031 5.86306L16.0354 4.0953L5.4933 14.6374L7.26106 16.4051ZM5.47589 19.9012C5.46106 18.699 6.15341 17.5128 7.26106 16.4051L5.4933 14.6374C4.19757 15.9331 2.949 17.7356 2.97608 19.932L5.47589 19.9012ZM13.5977 23.5035C12.7026 24.3987 11.8406 24.9437 10.9655 24.9855L11.0847 27.4826C12.9151 27.3953 14.3453 26.2914 15.3654 25.2713L13.5977 23.5035Z" fill="#4980FF"/>
<path d="M26.2884 14.3483C26.7766 13.8602 26.7766 13.0687 26.2884 12.5806C25.8003 12.0924 25.0088 12.0924 24.5207 12.5806L26.2884 14.3483ZM19.9245 17.1768C19.4363 17.6649 19.4363 18.4564 19.9245 18.9445C20.4126 19.4327 21.2041 19.4327 21.6922 18.9445L19.9245 17.1768ZM24.5207 12.5806L19.9245 17.1768L21.6922 18.9445L26.2884 14.3483L24.5207 12.5806Z" fill="#4980FF"/>
<path d="M44.084 25.4434V23.0508C44.2988 23.2461 44.5527 23.4219 44.8457 23.5781C45.1452 23.7344 45.4609 23.8678 45.793 23.9785C46.125 24.0827 46.457 24.1641 46.7891 24.2227C47.1211 24.2812 47.4271 24.3105 47.707 24.3105C48.6836 24.3105 49.4095 24.1478 49.8848 23.8223C50.3665 23.4967 50.6074 23.0247 50.6074 22.4062C50.6074 22.0742 50.526 21.7878 50.3633 21.5469C50.207 21.2995 49.9857 21.0749 49.6992 20.873C49.4128 20.6712 49.0742 20.4792 48.6836 20.2969C48.2995 20.1081 47.8861 19.9128 47.4434 19.7109C46.9681 19.457 46.5254 19.1999 46.1152 18.9395C45.7051 18.679 45.347 18.3926 45.041 18.0801C44.7415 17.7611 44.5039 17.403 44.3281 17.0059C44.1589 16.6087 44.0742 16.1432 44.0742 15.6094C44.0742 14.9518 44.2207 14.3822 44.5137 13.9004C44.8132 13.4121 45.2038 13.0117 45.6855 12.6992C46.1738 12.3802 46.7272 12.1458 47.3457 11.9961C47.9642 11.8398 48.5957 11.7617 49.2402 11.7617C50.7051 11.7617 51.7728 11.9277 52.4434 12.2598V14.5547C51.6491 13.9818 50.627 13.6953 49.377 13.6953C49.0319 13.6953 48.6868 13.7279 48.3418 13.793C48.0033 13.8581 47.6973 13.9655 47.4238 14.1152C47.1569 14.265 46.9388 14.457 46.7695 14.6914C46.6003 14.9258 46.5156 15.209 46.5156 15.541C46.5156 15.8535 46.5807 16.1237 46.7109 16.3516C46.8411 16.5794 47.0299 16.7878 47.2773 16.9766C47.5312 17.1654 47.8372 17.3509 48.1953 17.5332C48.5599 17.709 48.9798 17.901 49.4551 18.1094C49.9434 18.3633 50.4023 18.6302 50.832 18.9102C51.2682 19.1901 51.6491 19.4993 51.9746 19.8379C52.3066 20.1764 52.5671 20.554 52.7559 20.9707C52.9512 21.3809 53.0488 21.8496 53.0488 22.377C53.0488 23.0866 52.9056 23.6855 52.6191 24.1738C52.3327 24.6621 51.9453 25.0592 51.457 25.3652C50.9753 25.6712 50.4186 25.8926 49.7871 26.0293C49.1556 26.166 48.4883 26.2344 47.7852 26.2344C47.5508 26.2344 47.2611 26.2148 46.916 26.1758C46.5775 26.1432 46.2292 26.0911 45.8711 26.0195C45.513 25.9544 45.1745 25.873 44.8555 25.7754C44.5365 25.6777 44.2793 25.5671 44.084 25.4434ZM64.6113 13.9688H60.5879V26H58.2637V13.9688H54.25V11.9961H64.6113V13.9688ZM71.5938 26.2344C69.5755 26.2344 67.9577 25.5801 66.7402 24.2715C65.5293 22.9629 64.9238 21.2604 64.9238 19.1641C64.9238 16.9115 65.5423 15.1146 66.7793 13.7734C68.0163 12.4323 69.696 11.7617 71.8184 11.7617C73.7845 11.7617 75.3665 12.4128 76.5645 13.7148C77.7689 15.0169 78.3711 16.7194 78.3711 18.8223C78.3711 21.1074 77.7559 22.9141 76.5254 24.2422C75.2949 25.5703 73.651 26.2344 71.5938 26.2344ZM71.7012 13.8027C70.4186 13.8027 69.3737 14.2812 68.5664 15.2383C67.7656 16.1953 67.3652 17.4551 67.3652 19.0176C67.3652 20.5736 67.7559 21.8268 68.5371 22.7773C69.3184 23.7279 70.3405 24.2031 71.6035 24.2031C72.9447 24.2031 74.0026 23.7507 74.7773 22.8457C75.5521 21.9408 75.9395 20.6745 75.9395 19.0469C75.9395 17.3737 75.5618 16.0814 74.8066 15.1699C74.0579 14.2585 73.0228 13.8027 71.7012 13.8027ZM91.7598 26H89.0449L86.8086 22.25C86.6068 21.9049 86.4082 21.612 86.2129 21.3711C86.0241 21.1237 85.8288 20.9219 85.627 20.7656C85.4316 20.6094 85.2168 20.4954 84.9824 20.4238C84.748 20.3522 84.4844 20.3164 84.1914 20.3164H83.2539V26H80.9395V11.9961H85.5488C86.2064 11.9961 86.8118 12.0742 87.3652 12.2305C87.9186 12.3867 88.4004 12.6243 88.8105 12.9434C89.2207 13.2559 89.5397 13.6497 89.7676 14.125C90.002 14.5938 90.1191 15.1439 90.1191 15.7754C90.1191 16.2702 90.0443 16.7259 89.8945 17.1426C89.7513 17.5527 89.543 17.9206 89.2695 18.2461C89.0026 18.5651 88.6771 18.8385 88.293 19.0664C87.9154 19.2943 87.4889 19.4701 87.0137 19.5938V19.6328C87.2676 19.776 87.4889 19.9355 87.6777 20.1113C87.8665 20.2806 88.0456 20.4564 88.2148 20.6387C88.3841 20.821 88.5501 21.0293 88.7129 21.2637C88.8822 21.4915 89.0677 21.7585 89.2695 22.0645L91.7598 26ZM83.2539 13.8809V18.4316H85.1875C85.5456 18.4316 85.8743 18.3763 86.1738 18.2656C86.4798 18.1549 86.7435 17.9954 86.9648 17.7871C87.1862 17.5788 87.3587 17.3249 87.4824 17.0254C87.6061 16.7259 87.668 16.3906 87.668 16.0195C87.668 15.349 87.4564 14.8249 87.0332 14.4473C86.61 14.0697 86.0013 13.8809 85.207 13.8809H83.2539ZM101.262 26H93.4004V11.9961H100.949V13.9688H95.7246V17.9336H100.539V19.8965H95.7246V24.0371H101.262V26ZM120.764 26H118.215L116.955 22.4355H111.447L110.236 26H107.697L112.941 11.9961H115.559L120.764 26ZM116.34 20.541L114.396 14.9551C114.338 14.7728 114.276 14.4798 114.211 14.0762H114.172C114.113 14.4473 114.048 14.7402 113.977 14.9551L112.053 20.541H116.34ZM134.572 26H132.033L125.344 15.707C125.174 15.4466 125.035 15.1764 124.924 14.8965H124.865C124.917 15.196 124.943 15.8372 124.943 16.8203V26H122.697V11.9961H125.402L131.867 22.0449C132.141 22.4616 132.316 22.748 132.395 22.9043H132.434C132.368 22.5332 132.336 21.9049 132.336 21.0195V11.9961H134.572V26ZM149.553 26H147.004L145.744 22.4355H140.236L139.025 26H136.486L141.73 11.9961H144.348L149.553 26ZM145.129 20.541L143.186 14.9551C143.127 14.7728 143.065 14.4798 143 14.0762H142.961C142.902 14.4473 142.837 14.7402 142.766 14.9551L140.842 20.541H145.129ZM159.24 26H151.486V11.9961H153.811V24.0371H159.24V26ZM169.699 11.9961L165.109 20.9121V26H162.785V20.9609L158.312 11.9961H160.959L163.713 18.002C163.745 18.0736 163.843 18.3438 164.006 18.8125H164.035C164.094 18.6042 164.201 18.334 164.357 18.002L167.238 11.9961H169.699ZM181.037 13.0117L173.361 24.0371H180.939V26H170.109V24.9355L177.814 13.9688H170.705V11.9961H181.037V13.0117ZM191.086 26H183.225V11.9961H190.773V13.9688H185.549V17.9336H190.363V19.8965H185.549V24.0371H191.086V26ZM204.396 26H201.682L199.445 22.25C199.243 21.9049 199.045 21.612 198.85 21.3711C198.661 21.1237 198.465 20.9219 198.264 20.7656C198.068 20.6094 197.854 20.4954 197.619 20.4238C197.385 20.3522 197.121 20.3164 196.828 20.3164H195.891V26H193.576V11.9961H198.186C198.843 11.9961 199.449 12.0742 200.002 12.2305C200.555 12.3867 201.037 12.6243 201.447 12.9434C201.857 13.2559 202.176 13.6497 202.404 14.125C202.639 14.5938 202.756 15.1439 202.756 15.7754C202.756 16.2702 202.681 16.7259 202.531 17.1426C202.388 17.5527 202.18 17.9206 201.906 18.2461C201.639 18.5651 201.314 18.8385 200.93 19.0664C200.552 19.2943 200.126 19.4701 199.65 19.5938V19.6328C199.904 19.776 200.126 19.9355 200.314 20.1113C200.503 20.2806 200.682 20.4564 200.852 20.6387C201.021 20.821 201.187 21.0293 201.35 21.2637C201.519 21.4915 201.704 21.7585 201.906 22.0645L204.396 26ZM195.891 13.8809V18.4316H197.824C198.182 18.4316 198.511 18.3763 198.811 18.2656C199.117 18.1549 199.38 17.9954 199.602 17.7871C199.823 17.5788 199.995 17.3249 200.119 17.0254C200.243 16.7259 200.305 16.3906 200.305 16.0195C200.305 15.349 200.093 14.8249 199.67 14.4473C199.247 14.0697 198.638 13.8809 197.844 13.8809H195.891Z" fill="white"/>
</svg>
