<svg width="35" height="35" viewBox="0 0 35 35" fill="none" xmlns="http://www.w3.org/2000/svg">
<rect width="35" height="35" fill="black" fill-opacity="0"/>
<circle cx="17.5" cy="17.5" r="17.5" fill="white"/>
<rect width="31.8728" height="24.3952" fill="black" fill-opacity="0" transform="translate(1.68994 4.97919)"/>
<path d="M9.31782 20.0052C8.82967 20.4934 8.82967 21.2848 9.31782 21.773C9.80598 22.2611 10.5974 22.2611 11.0856 21.773L9.31782 20.0052ZM24.2276 8.47302L24.2872 9.7216L24.2872 9.7216L24.2276 8.47302ZM28.94 9.92893L29.7075 8.94224L28.94 9.92893ZM31.0267 14.7905L29.7768 14.8059L29.7768 14.8059L31.0267 14.7905ZM17.8031 28.4905C17.3149 28.9786 17.3149 29.7701 17.8031 30.2582C18.2913 30.7464 19.0827 30.7464 19.5709 30.2582L17.8031 28.4905ZM11.0856 21.773L21.655 11.2035L19.8872 9.43578L9.31782 20.0052L11.0856 21.773ZM24.2872 9.7216C25.4516 9.66603 26.8856 9.91458 28.1726 10.9156L29.7075 8.94224C27.8376 7.4879 25.7702 7.14798 24.168 7.22444L24.2872 9.7216ZM28.1726 10.9156C29.3288 11.8149 29.7582 13.2953 29.7768 14.8059L32.2766 14.7751C32.2537 12.9136 31.7264 10.5125 29.7075 8.94224L28.1726 10.9156ZM27.9916 18.302L17.8031 28.4905L19.5709 30.2582L29.7594 20.0697L27.9916 18.302ZM29.7768 14.8059C29.7916 16.0081 29.0993 17.1943 27.9916 18.302L29.7594 20.0697C31.0551 18.774 32.3037 16.9715 32.2766 14.7751L29.7768 14.8059ZM21.655 11.2035C22.5501 10.3084 23.4121 9.76336 24.2872 9.7216L24.168 7.22444C22.3375 7.3118 20.9074 8.41565 19.8872 9.43578L21.655 11.2035Z" fill="#4980FF"/>
<path d="M18.8638 21.773C19.3519 21.2848 19.3519 20.4934 18.8638 20.0052C18.3756 19.517 17.5842 19.517 17.096 20.0052L18.8638 21.773ZM11.0251 26.2341L10.9655 24.9855L10.9655 24.9855L11.0251 26.2341ZM6.31265 24.7782L5.54522 25.7649L6.31265 24.7782ZM4.22598 19.9166L5.47589 19.9012L5.47589 19.9012L4.22598 19.9166ZM17.8031 5.86306C18.2913 5.37491 18.2913 4.58345 17.8031 4.0953C17.315 3.60714 16.5235 3.60714 16.0354 4.0953L17.8031 5.86306ZM17.096 20.0052L13.5977 23.5035L15.3654 25.2713L18.8638 21.773L17.096 20.0052ZM10.9655 24.9855C9.80104 25.0411 8.36712 24.7925 7.08008 23.7915L5.54522 25.7649C7.41509 27.2192 9.48246 27.5591 11.0847 27.4826L10.9655 24.9855ZM7.08008 23.7915C5.92384 22.8922 5.49452 21.4118 5.47589 19.9012L2.97608 19.932C2.99903 21.7935 3.52628 24.1946 5.54522 25.7649L7.08008 23.7915ZM7.26106 16.4051L17.8031 5.86306L16.0354 4.0953L5.4933 14.6374L7.26106 16.4051ZM5.47589 19.9012C5.46106 18.699 6.15341 17.5128 7.26106 16.4051L5.4933 14.6374C4.19757 15.9331 2.949 17.7356 2.97608 19.932L5.47589 19.9012ZM13.5977 23.5035C12.7026 24.3987 11.8406 24.9437 10.9655 24.9855L11.0847 27.4826C12.9151 27.3953 14.3453 26.2914 15.3654 25.2713L13.5977 23.5035Z" fill="#4980FF"/>
<path d="M26.2884 14.3483C26.7766 13.8602 26.7766 13.0687 26.2884 12.5806C25.8003 12.0924 25.0088 12.0924 24.5207 12.5806L26.2884 14.3483ZM19.9245 17.1768C19.4363 17.6649 19.4363 18.4564 19.9245 18.9445C20.4126 19.4327 21.2041 19.4327 21.6922 18.9445L19.9245 17.1768ZM24.5207 12.5806L19.9245 17.1768L21.6922 18.9445L26.2884 14.3483L24.5207 12.5806Z" fill="#4980FF"/>
</svg>
