<svg width="192" height="130" viewBox="0 0 192 130" fill="none" xmlns="http://www.w3.org/2000/svg">
<rect width="187" height="126" fill="black" fill-opacity="0" transform="translate(1 2)"/>
<path d="M1 128V2L188 65L1 128Z" fill="#002D56" stroke="white" stroke-width="2"/>
<rect width="46.4362" height="56.7" fill="black" fill-opacity="0" transform="translate(8.5302 36.02)"/>
<path d="M18.5705 48.6199H8.5302V49.8799H9.78523L27.3557 87.6799V91.4599H26.1007V92.7199H37.396V91.4599H36.1409V87.6799L53.7114 49.8799H54.9664V48.6199H44.9262V49.8799H46.1812V53.6599L31.7483 86.4199L17.3154 53.6599V49.8799H18.5705V48.6199Z" fill="#BCBDC0"/>
<path d="M28.5693 45.8461L33.2275 51.6762C33.8851 52.4965 34.4515 53.0532 34.9267 53.3461C35.2718 53.5545 35.6364 53.6586 36.0205 53.6586V54.02H29.126V53.6586C29.5622 53.6196 29.8421 53.5512 29.9658 53.4536C30.096 53.3559 30.1611 53.2355 30.1611 53.0922C30.1611 52.8188 29.8616 52.3045 29.2627 51.5493L26.2256 47.7309L25.7373 48.1411V51.7543C25.7373 52.4444 25.7763 52.8741 25.8545 53.0434C25.9326 53.2127 26.0823 53.3592 26.3037 53.4828C26.525 53.6 26.8799 53.6586 27.3681 53.6586V54.02H20.6885V53.6586H21.1279C21.512 53.6586 21.8213 53.5903 22.0556 53.4536C22.2249 53.3624 22.3551 53.2062 22.4463 52.9848C22.5179 52.8286 22.5537 52.4184 22.5537 51.7543V43.0434C22.5537 42.3663 22.5179 41.9431 22.4463 41.7739C22.3747 41.6046 22.2282 41.4581 22.0068 41.3344C21.792 41.2042 21.499 41.1391 21.1279 41.1391H20.6885V40.7778H27.2803V41.1391C26.831 41.1391 26.4892 41.2042 26.2549 41.3344C26.0856 41.4256 25.9521 41.5786 25.8545 41.7934C25.7763 41.9562 25.7373 42.3728 25.7373 43.0434V47.1645L30.6494 43.1899C31.333 42.6365 31.6748 42.1938 31.6748 41.8618C31.6748 41.6144 31.5348 41.419 31.2549 41.2758C31.1116 41.2042 30.7568 41.1586 30.1904 41.1391V40.7778H35.3564V41.1391C34.8942 41.1717 34.5296 41.2563 34.2627 41.393C34.0023 41.5232 33.3968 41.9724 32.4463 42.7407L28.5693 45.8461Z" fill="white"/>
<path d="M36.9968 55.6502V59.3221C36.9968 60.0382 37.0392 60.4907 37.1238 60.6795C37.2149 60.8618 37.3712 61.0083 37.5925 61.119C37.8204 61.2296 38.2338 61.285 38.8328 61.285V61.6463H32.1043V61.285C32.7162 61.285 33.1296 61.2296 33.3445 61.119C33.5658 61.0018 33.7188 60.852 33.8035 60.6697C33.8946 60.4874 33.9402 60.0382 33.9402 59.3221V50.7283C33.9402 50.0122 33.8946 49.563 33.8035 49.3807C33.7188 49.1919 33.5658 49.0421 33.3445 48.9315C33.1231 48.8208 32.7097 48.7654 32.1043 48.7654V48.4041H37.8757C39.7768 48.4041 41.1407 48.7427 41.9675 49.4197C42.7944 50.0968 43.2078 50.9432 43.2078 51.9588C43.2078 52.8182 42.9408 53.5539 42.407 54.1658C41.8731 54.7778 41.1375 55.1945 40.2 55.4158C39.5684 55.5721 38.5007 55.6502 36.9968 55.6502ZM36.9968 49.1658V54.8885C37.2117 54.9015 37.3744 54.908 37.4851 54.908C38.2794 54.908 38.8914 54.6736 39.3211 54.2049C39.7507 53.7296 39.9656 52.9972 39.9656 52.0076C39.9656 51.0246 39.7507 50.3052 39.3211 49.8494C38.8914 49.3937 38.2501 49.1658 37.3972 49.1658H36.9968Z" fill="white"/>
<path d="M53.5284 64.244H62.1524V66.212H55.8484V68.628H61.4484V70.596H55.8484V73.252H62.2484V75.22H53.5284V64.244ZM64.2003 64.244H66.4563L70.6803 70.212C70.7656 70.3293 70.8829 70.516 71.0323 70.772C71.1816 71.028 71.2776 71.1986 71.3203 71.284L71.4003 71.236C71.4003 71.1506 71.3896 71.012 71.3683 70.82C71.3576 70.628 71.3523 70.4573 71.3523 70.308V64.244H73.6083V75.22H71.3523L67.1123 69.204C66.9843 69.0226 66.8563 68.82 66.7283 68.596C66.6003 68.3613 66.5203 68.212 66.4883 68.148L66.4083 68.196C66.4083 68.2706 66.4136 68.404 66.4243 68.596C66.4456 68.788 66.4563 68.9746 66.4563 69.156V75.22H64.2003V64.244ZM78.4031 66.244H75.0111V64.244H84.1151V66.244H80.7231V75.22H78.4031V66.244ZM90.2164 75.412C88.7337 75.412 87.5817 75.0493 86.7604 74.324C85.939 73.5986 85.5284 72.5373 85.5284 71.14V64.244H87.8484V71.028C87.8484 71.8173 88.051 72.42 88.4564 72.836C88.8724 73.2413 89.459 73.444 90.2164 73.444C90.9737 73.444 91.5604 73.2413 91.9764 72.836C92.403 72.42 92.6164 71.8173 92.6164 71.028V64.244H94.9364V71.14C94.9364 72.5373 94.5204 73.5986 93.6884 74.324C92.867 75.0493 91.7097 75.412 90.2164 75.412ZM97.0753 64.244H102.899C104.126 64.244 105.049 64.548 105.667 65.156C106.286 65.7533 106.595 66.596 106.595 67.684C106.595 69.22 105.955 70.244 104.675 70.756L106.915 75.22H104.403L102.467 71.124H99.3953V75.22H97.0753V64.244ZM102.691 69.188C103.193 69.188 103.577 69.0546 103.843 68.788C104.11 68.5213 104.243 68.1533 104.243 67.684C104.243 67.2146 104.11 66.852 103.843 66.596C103.577 66.34 103.193 66.212 102.691 66.212H99.3953V69.188H102.691ZM108.622 64.244H117.246V66.212H110.942V68.628H116.542V70.596H110.942V73.252H117.342V75.22H108.622V64.244ZM123.502 75.412C122.659 75.412 121.886 75.284 121.182 75.028C120.489 74.7613 119.934 74.372 119.518 73.86C119.102 73.348 118.894 72.7293 118.894 72.004L118.91 71.652H121.262L121.246 71.908C121.246 72.3773 121.454 72.7506 121.87 73.028C122.286 73.3053 122.867 73.444 123.614 73.444C124.403 73.444 124.974 73.3426 125.326 73.14C125.678 72.9266 125.854 72.644 125.854 72.292C125.854 71.9826 125.737 71.7266 125.502 71.524C125.278 71.3106 124.99 71.1453 124.638 71.028C124.297 70.9 123.822 70.7506 123.214 70.58C122.35 70.3346 121.651 70.1 121.118 69.876C120.585 69.652 120.126 69.3213 119.742 68.884C119.358 68.436 119.166 67.8493 119.166 67.124C119.166 66.1213 119.571 65.3586 120.382 64.836C121.193 64.3133 122.27 64.052 123.614 64.052C124.883 64.052 125.918 64.324 126.718 64.868C127.529 65.4013 127.934 66.2066 127.934 67.284V67.476H125.63V67.332C125.63 66.9266 125.443 66.6066 125.07 66.372C124.707 66.1373 124.211 66.02 123.582 66.02C122.91 66.02 122.393 66.1106 122.03 66.292C121.678 66.4733 121.502 66.724 121.502 67.044C121.502 67.2893 121.609 67.5026 121.822 67.684C122.035 67.8546 122.302 67.9986 122.622 68.116C122.942 68.2226 123.395 68.356 123.982 68.516C124.857 68.7506 125.571 68.9853 126.126 69.22C126.691 69.444 127.177 69.78 127.582 70.228C127.987 70.676 128.19 71.2626 128.19 71.988C128.19 73.1613 127.769 74.0253 126.926 74.58C126.094 75.1346 124.953 75.412 123.502 75.412Z" fill="#BCBDC0"/>
</svg>
